<svg width="236" height="90" viewBox="0 0 236 90" fill="none" xmlns="http://www.w3.org/2000/svg">
<g filter="url(#filter0_d_641_186)">
<rect x="4" y="0.855469" width="228" height="81" rx="15" fill="white"/>
<path d="M86.2466 32.2744C86.2466 33.5195 86.0146 34.5547 85.5508 35.3799C85.0869 36.2051 84.4326 36.8252 83.5879 37.2402C82.748 37.6504 81.7593 37.8555 80.6216 37.8555H77.1572V27.1475H80.8633C82.0156 27.1475 82.9922 27.3452 83.793 27.7407C84.5938 28.1362 85.2017 28.7148 85.6167 29.4766C86.0366 30.2383 86.2466 31.1709 86.2466 32.2744ZM83.2437 32.377C83.2437 31.7275 83.1558 31.1904 82.98 30.7656C82.8091 30.3359 82.5503 30.0161 82.2036 29.8062C81.8569 29.5913 81.4199 29.4839 80.8926 29.4839H80.0503V35.4824H80.6948C81.5737 35.4824 82.2183 35.2285 82.6284 34.7207C83.0386 34.208 83.2437 33.4268 83.2437 32.377ZM95.9292 33.688C95.9292 34.3813 95.834 34.9966 95.6436 35.5337C95.4531 36.0708 95.1772 36.5225 94.8159 36.8887C94.4546 37.2549 94.0176 37.5332 93.5049 37.7236C92.9922 37.9092 92.4136 38.002 91.769 38.002C91.1685 38.002 90.6167 37.9092 90.1138 37.7236C89.6157 37.5332 89.1812 37.2549 88.8101 36.8887C88.439 36.5225 88.1509 36.0708 87.9458 35.5337C87.7456 34.9966 87.6455 34.3813 87.6455 33.688C87.6455 32.77 87.8115 31.9937 88.1436 31.3589C88.4805 30.7241 88.959 30.2407 89.5791 29.9087C90.2041 29.5767 90.9487 29.4106 91.813 29.4106C92.6089 29.4106 93.3169 29.5767 93.937 29.9087C94.5571 30.2407 95.043 30.7241 95.3945 31.3589C95.751 31.9937 95.9292 32.77 95.9292 33.688ZM90.5532 33.688C90.5532 34.1616 90.5947 34.562 90.6777 34.8892C90.7607 35.2114 90.8926 35.458 91.0732 35.6289C91.2588 35.7949 91.5005 35.8779 91.7983 35.8779C92.0962 35.8779 92.333 35.7949 92.5088 35.6289C92.6846 35.458 92.8115 35.2114 92.8896 34.8892C92.9727 34.562 93.0142 34.1616 93.0142 33.688C93.0142 33.2144 92.9727 32.8188 92.8896 32.5015C92.8115 32.1841 92.6821 31.9448 92.5015 31.7837C92.3257 31.6226 92.0864 31.542 91.7837 31.542C91.3491 31.542 91.0342 31.7227 90.8389 32.084C90.6484 32.4453 90.5532 32.98 90.5532 33.688ZM104.711 37.8555L103.839 34.2227C103.795 34.0371 103.751 33.8271 103.708 33.5928C103.664 33.3535 103.62 33.1143 103.576 32.875C103.537 32.6357 103.502 32.416 103.473 32.2158C103.444 32.0156 103.422 31.8594 103.407 31.7471H103.363C103.349 31.8594 103.324 32.0181 103.29 32.2231C103.256 32.4233 103.217 32.6455 103.173 32.8896C103.129 33.1338 103.08 33.3828 103.026 33.6367C102.978 33.8857 102.929 34.1177 102.88 34.3325L102.038 37.8555H99.0273L96.7642 29.5571H99.584L100.258 32.7432C100.307 32.9775 100.355 33.2583 100.404 33.5854C100.458 33.9077 100.504 34.2373 100.543 34.5742C100.587 34.9062 100.617 35.2041 100.631 35.4678H100.675C100.685 35.2676 100.707 35.0381 100.741 34.7793C100.78 34.5156 100.822 34.2544 100.866 33.9956C100.915 33.7368 100.958 33.5098 100.998 33.3145C101.037 33.1143 101.063 32.9775 101.078 32.9043L101.847 29.5571H105.011L105.714 32.9482C105.758 33.1387 105.807 33.3828 105.861 33.6807C105.919 33.9736 105.973 34.2812 106.022 34.6035C106.076 34.9209 106.115 35.209 106.139 35.4678H106.183C106.203 35.1992 106.232 34.894 106.271 34.5522C106.31 34.2104 106.354 33.8784 106.403 33.5562C106.457 33.229 106.508 32.958 106.557 32.7432L107.289 29.5571H110.05L107.772 37.8555H104.711ZM116.415 29.4106C117.27 29.4106 117.968 29.6523 118.51 30.1357C119.052 30.6191 119.323 31.3931 119.323 32.4575V37.8555H116.459V33.3291C116.459 32.7773 116.378 32.3623 116.217 32.084C116.061 31.8008 115.807 31.6592 115.456 31.6592C114.914 31.6592 114.55 31.8813 114.364 32.3257C114.179 32.7651 114.086 33.3975 114.086 34.2227V37.8555H111.222V29.5571H113.383L113.771 30.6558H113.881C114.057 30.3921 114.267 30.1675 114.511 29.9819C114.755 29.7964 115.036 29.6548 115.353 29.5571C115.67 29.4595 116.024 29.4106 116.415 29.4106ZM124.135 37.8555H121.271V26.459H124.135V37.8555ZM134.044 33.688C134.044 34.3813 133.949 34.9966 133.759 35.5337C133.568 36.0708 133.292 36.5225 132.931 36.8887C132.57 37.2549 132.133 37.5332 131.62 37.7236C131.107 37.9092 130.529 38.002 129.884 38.002C129.284 38.002 128.732 37.9092 128.229 37.7236C127.731 37.5332 127.296 37.2549 126.925 36.8887C126.554 36.5225 126.266 36.0708 126.061 35.5337C125.861 34.9966 125.761 34.3813 125.761 33.688C125.761 32.77 125.927 31.9937 126.259 31.3589C126.596 30.7241 127.074 30.2407 127.694 29.9087C128.319 29.5767 129.064 29.4106 129.928 29.4106C130.724 29.4106 131.432 29.5767 132.052 29.9087C132.672 30.2407 133.158 30.7241 133.51 31.3589C133.866 31.9937 134.044 32.77 134.044 33.688ZM128.668 33.688C128.668 34.1616 128.71 34.562 128.793 34.8892C128.876 35.2114 129.008 35.458 129.188 35.6289C129.374 35.7949 129.616 35.8779 129.914 35.8779C130.211 35.8779 130.448 35.7949 130.624 35.6289C130.8 35.458 130.927 35.2114 131.005 34.8892C131.088 34.562 131.129 34.1616 131.129 33.688C131.129 33.2144 131.088 32.8188 131.005 32.5015C130.927 32.1841 130.797 31.9448 130.617 31.7837C130.441 31.6226 130.202 31.542 129.899 31.542C129.464 31.542 129.149 31.7227 128.954 32.084C128.764 32.4453 128.668 32.98 128.668 33.688ZM139.735 29.4106C140.785 29.4106 141.605 29.6719 142.196 30.1943C142.787 30.7119 143.083 31.4517 143.083 32.4136V37.8555H141.098L140.548 36.7568H140.49C140.255 37.0498 140.014 37.2891 139.765 37.4746C139.521 37.6553 139.24 37.7871 138.922 37.8701C138.605 37.958 138.217 38.002 137.758 38.002C137.279 38.002 136.85 37.9043 136.469 37.709C136.088 37.5137 135.788 37.2183 135.568 36.8228C135.348 36.4272 135.238 35.9268 135.238 35.3213C135.238 34.4326 135.546 33.7734 136.161 33.3438C136.776 32.9141 137.667 32.6724 138.834 32.6187L140.219 32.5747V32.4575C140.219 32.0864 140.126 31.8228 139.94 31.6665C139.76 31.5103 139.516 31.4321 139.208 31.4321C138.881 31.4321 138.515 31.4907 138.109 31.6079C137.709 31.7202 137.306 31.8667 136.901 32.0474L136.073 30.1577C136.552 29.9136 137.094 29.728 137.699 29.6011C138.305 29.4741 138.983 29.4106 139.735 29.4106ZM140.233 34.1494L139.574 34.1787C139.047 34.1982 138.676 34.291 138.461 34.457C138.251 34.6182 138.146 34.8501 138.146 35.1528C138.146 35.436 138.222 35.646 138.373 35.7827C138.524 35.9146 138.725 35.9805 138.974 35.9805C139.32 35.9805 139.616 35.8706 139.86 35.6509C140.109 35.4312 140.233 35.1455 140.233 34.7939V34.1494ZM147.609 38.002C146.754 38.002 146.051 37.6382 145.5 36.9106C144.948 36.1831 144.672 35.1187 144.672 33.7173C144.672 32.3013 144.955 31.2295 145.521 30.502C146.088 29.7744 146.82 29.4106 147.719 29.4106C148.09 29.4106 148.41 29.4644 148.678 29.5718C148.947 29.6792 149.179 29.8257 149.374 30.0112C149.574 30.1919 149.748 30.397 149.894 30.6265H149.953C149.918 30.4165 149.887 30.1284 149.857 29.7622C149.828 29.3911 149.813 29.0298 149.813 28.6782V26.459H152.699V37.8555H150.539L149.923 36.8081H149.813C149.682 37.0278 149.516 37.228 149.315 37.4087C149.12 37.5894 148.881 37.7334 148.598 37.8408C148.319 37.9482 147.99 38.002 147.609 38.002ZM148.781 35.7388C149.24 35.7388 149.562 35.5947 149.748 35.3066C149.938 35.0137 150.041 34.5693 150.055 33.9736V33.7466C150.055 33.0923 149.962 32.5918 149.777 32.2451C149.596 31.8936 149.254 31.7178 148.751 31.7178C148.41 31.7178 148.126 31.8838 147.902 32.2158C147.677 32.5479 147.565 33.063 147.565 33.7612C147.565 34.4497 147.677 34.9526 147.902 35.27C148.131 35.5825 148.424 35.7388 148.781 35.7388ZM166.505 33.688C166.505 34.3813 166.41 34.9966 166.22 35.5337C166.029 36.0708 165.753 36.5225 165.392 36.8887C165.031 37.2549 164.594 37.5332 164.081 37.7236C163.568 37.9092 162.99 38.002 162.345 38.002C161.745 38.002 161.193 37.9092 160.69 37.7236C160.192 37.5332 159.757 37.2549 159.386 36.8887C159.015 36.5225 158.727 36.0708 158.522 35.5337C158.322 34.9966 158.222 34.3813 158.222 33.688C158.222 32.77 158.388 31.9937 158.72 31.3589C159.057 30.7241 159.535 30.2407 160.155 29.9087C160.78 29.5767 161.525 29.4106 162.389 29.4106C163.185 29.4106 163.893 29.5767 164.513 29.9087C165.133 30.2407 165.619 30.7241 165.971 31.3589C166.327 31.9937 166.505 32.77 166.505 33.688ZM161.129 33.688C161.129 34.1616 161.171 34.562 161.254 34.8892C161.337 35.2114 161.469 35.458 161.649 35.6289C161.835 35.7949 162.077 35.8779 162.375 35.8779C162.672 35.8779 162.909 35.7949 163.085 35.6289C163.261 35.458 163.388 35.2114 163.466 34.8892C163.549 34.562 163.59 34.1616 163.59 33.688C163.59 33.2144 163.549 32.8188 163.466 32.5015C163.388 32.1841 163.258 31.9448 163.078 31.7837C162.902 31.6226 162.663 31.542 162.36 31.542C161.925 31.542 161.61 31.7227 161.415 32.084C161.225 32.4453 161.129 32.98 161.129 33.688ZM173.339 29.4106C174.193 29.4106 174.892 29.6523 175.434 30.1357C175.976 30.6191 176.247 31.3931 176.247 32.4575V37.8555H173.383V33.3291C173.383 32.7773 173.302 32.3623 173.141 32.084C172.985 31.8008 172.731 31.6592 172.379 31.6592C171.837 31.6592 171.474 31.8813 171.288 32.3257C171.103 32.7651 171.01 33.3975 171.01 34.2227V37.8555H168.146V29.5571H170.307L170.695 30.6558H170.805C170.98 30.3921 171.19 30.1675 171.435 29.9819C171.679 29.7964 171.959 29.6548 172.277 29.5571C172.594 29.4595 172.948 29.4106 173.339 29.4106ZM186.156 35.7388C186.415 35.7388 186.652 35.7119 186.867 35.6582C187.082 35.6045 187.306 35.5361 187.541 35.4531V37.5405C187.228 37.6772 186.896 37.7871 186.544 37.8701C186.198 37.958 185.753 38.002 185.211 38.002C184.674 38.002 184.201 37.9189 183.791 37.7529C183.38 37.582 183.061 37.2891 182.831 36.874C182.606 36.4541 182.494 35.8706 182.494 35.1235V31.7031H181.491V30.5386L182.765 29.6377L183.505 27.8945H185.38V29.5571H187.416V31.7031H185.38V34.9331C185.38 35.2017 185.448 35.4043 185.585 35.541C185.722 35.6729 185.912 35.7388 186.156 35.7388ZM191.854 26.459V28.0776C191.854 28.6929 191.84 29.2104 191.811 29.6304C191.786 30.0454 191.762 30.3628 191.737 30.5825H191.869C192.05 30.2944 192.255 30.0649 192.484 29.894C192.714 29.7231 192.968 29.6011 193.246 29.5278C193.524 29.4497 193.827 29.4106 194.154 29.4106C194.701 29.4106 195.194 29.5156 195.634 29.7256C196.078 29.9355 196.432 30.2651 196.696 30.7144C196.959 31.1587 197.091 31.7397 197.091 32.4575V37.8555H194.213V33.3291C194.213 32.7773 194.132 32.3623 193.971 32.084C193.81 31.8008 193.561 31.6592 193.224 31.6592C192.877 31.6592 192.604 31.7593 192.404 31.9595C192.204 32.1548 192.062 32.4429 191.979 32.8237C191.896 33.1997 191.854 33.6611 191.854 34.208V37.8555H188.991V26.459H191.854ZM202.775 29.4106C203.581 29.4106 204.276 29.5522 204.862 29.8354C205.448 30.1138 205.9 30.5337 206.217 31.0952C206.535 31.6567 206.693 32.3599 206.693 33.2046V34.479H201.574C201.598 34.9136 201.759 35.27 202.057 35.5483C202.36 35.8267 202.804 35.9658 203.39 35.9658C203.908 35.9658 204.381 35.9146 204.811 35.812C205.246 35.7095 205.692 35.5508 206.151 35.3359V37.394C205.751 37.604 205.314 37.7578 204.84 37.8555C204.367 37.9531 203.769 38.002 203.046 38.002C202.211 38.002 201.464 37.853 200.805 37.5552C200.146 37.2573 199.625 36.7959 199.245 36.1709C198.869 35.5459 198.681 34.7427 198.681 33.7612C198.681 32.7651 198.852 31.9473 199.193 31.3076C199.535 30.6631 200.014 30.187 200.629 29.8794C201.244 29.5669 201.959 29.4106 202.775 29.4106ZM202.877 31.3589C202.541 31.3589 202.257 31.4663 202.028 31.6812C201.803 31.8911 201.671 32.2231 201.632 32.6772H204.093C204.088 32.4331 204.04 32.2109 203.947 32.0107C203.854 31.8105 203.717 31.6519 203.537 31.5347C203.361 31.4175 203.141 31.3589 202.877 31.3589ZM83.7271 55.8555L83.1997 53.8486H79.7207L79.1787 55.8555H76L79.4937 45.1035H83.3535L86.8911 55.8555H83.7271ZM82.5991 51.4756L82.1377 49.7178C82.0889 49.5273 82.0181 49.2563 81.9253 48.9048C81.8325 48.5483 81.7397 48.1821 81.647 47.8062C81.5591 47.4253 81.4907 47.1128 81.4419 46.8687C81.3979 47.1128 81.3345 47.4155 81.2515 47.7769C81.1733 48.1333 81.0903 48.4873 81.0024 48.8389C80.9194 49.1904 80.8462 49.4834 80.7827 49.7178L80.3213 51.4756H82.5991ZM92.9556 47.4106C93.8735 47.4106 94.5938 47.7793 95.1162 48.5166C95.6387 49.249 95.8999 50.3062 95.8999 51.688C95.8999 52.6304 95.7681 53.4238 95.5044 54.0684C95.2407 54.708 94.8794 55.1914 94.4204 55.5186C93.9663 55.8408 93.4487 56.002 92.8677 56.002C92.4771 56.002 92.145 55.9531 91.8716 55.8555C91.603 55.7578 91.3784 55.6357 91.1978 55.4893C91.022 55.3428 90.873 55.1938 90.751 55.0425H90.6631C90.6875 55.2329 90.707 55.438 90.7217 55.6577C90.7412 55.8774 90.751 56.1338 90.751 56.4268V59.459H87.8872V47.5571H90.2163L90.6191 48.6118H90.751C90.8877 48.397 91.0537 48.1992 91.249 48.0186C91.4443 47.833 91.6812 47.6865 91.9595 47.5791C92.2427 47.4668 92.5747 47.4106 92.9556 47.4106ZM91.8789 49.6592C91.6006 49.6592 91.3809 49.7251 91.2197 49.8569C91.0586 49.9888 90.9414 50.189 90.8682 50.4575C90.7998 50.7212 90.7607 51.0508 90.751 51.4463V51.6733C90.751 52.1128 90.7852 52.4839 90.8535 52.7866C90.9219 53.0845 91.0391 53.3115 91.2051 53.4678C91.3711 53.6191 91.6006 53.6948 91.8936 53.6948C92.1328 53.6948 92.333 53.6265 92.4941 53.4897C92.6553 53.353 92.7773 53.1357 92.8604 52.8379C92.9434 52.54 92.9849 52.147 92.9849 51.6587C92.9849 50.9312 92.8896 50.416 92.6992 50.1133C92.5137 49.8105 92.2402 49.6592 91.8789 49.6592ZM102.609 47.4106C103.527 47.4106 104.247 47.7793 104.77 48.5166C105.292 49.249 105.553 50.3062 105.553 51.688C105.553 52.6304 105.421 53.4238 105.158 54.0684C104.894 54.708 104.533 55.1914 104.074 55.5186C103.62 55.8408 103.102 56.002 102.521 56.002C102.13 56.002 101.798 55.9531 101.525 55.8555C101.256 55.7578 101.032 55.6357 100.851 55.4893C100.675 55.3428 100.526 55.1938 100.404 55.0425H100.316C100.341 55.2329 100.36 55.438 100.375 55.6577C100.395 55.8774 100.404 56.1338 100.404 56.4268V59.459H97.5405V47.5571H99.8696L100.272 48.6118H100.404C100.541 48.397 100.707 48.1992 100.902 48.0186C101.098 47.833 101.334 47.6865 101.613 47.5791C101.896 47.4668 102.228 47.4106 102.609 47.4106ZM101.532 49.6592C101.254 49.6592 101.034 49.7251 100.873 49.8569C100.712 49.9888 100.595 50.189 100.521 50.4575C100.453 50.7212 100.414 51.0508 100.404 51.4463V51.6733C100.404 52.1128 100.438 52.4839 100.507 52.7866C100.575 53.0845 100.692 53.3115 100.858 53.4678C101.024 53.6191 101.254 53.6948 101.547 53.6948C101.786 53.6948 101.986 53.6265 102.147 53.4897C102.309 53.353 102.431 53.1357 102.514 52.8379C102.597 52.54 102.638 52.147 102.638 51.6587C102.638 50.9312 102.543 50.416 102.353 50.1133C102.167 49.8105 101.894 49.6592 101.532 49.6592ZM118.261 52.6035C118.261 53.1846 118.114 53.7363 117.821 54.2588C117.528 54.7764 117.072 55.1963 116.452 55.5186C115.836 55.8408 115.041 56.002 114.064 56.002C113.576 56.002 113.146 55.98 112.775 55.936C112.409 55.8921 112.067 55.8213 111.75 55.7236C111.432 55.6211 111.103 55.4893 110.761 55.3281V52.75C111.342 53.043 111.928 53.2676 112.519 53.4238C113.109 53.5752 113.644 53.6509 114.123 53.6509C114.411 53.6509 114.645 53.6167 114.826 53.5483C115.011 53.48 115.148 53.3872 115.236 53.27C115.324 53.1479 115.368 53.0088 115.368 52.8525C115.368 52.667 115.302 52.5107 115.17 52.3838C115.043 52.252 114.838 52.1152 114.555 51.9736C114.271 51.832 113.898 51.6562 113.434 51.4463C113.039 51.2607 112.68 51.0703 112.357 50.875C112.04 50.6797 111.767 50.4575 111.537 50.2085C111.312 49.9546 111.139 49.6592 111.017 49.3223C110.895 48.9854 110.834 48.5874 110.834 48.1284C110.834 47.4399 111.002 46.8638 111.339 46.3999C111.681 45.9312 112.155 45.5796 112.76 45.3452C113.371 45.1108 114.074 44.9937 114.87 44.9937C115.568 44.9937 116.195 45.0718 116.752 45.228C117.313 45.3843 117.816 45.5625 118.261 45.7627L117.375 47.9966C116.916 47.7866 116.464 47.6206 116.02 47.4985C115.575 47.3716 115.163 47.3081 114.782 47.3081C114.533 47.3081 114.328 47.3398 114.167 47.4033C114.01 47.4619 113.893 47.5425 113.815 47.645C113.742 47.7476 113.705 47.8647 113.705 47.9966C113.705 48.1626 113.769 48.3115 113.896 48.4434C114.027 48.5752 114.245 48.7192 114.547 48.8755C114.855 49.0269 115.272 49.2246 115.8 49.4688C116.322 49.7031 116.767 49.957 117.133 50.2305C117.499 50.499 117.777 50.8237 117.968 51.2046C118.163 51.5806 118.261 52.0469 118.261 52.6035ZM123.812 53.7388C124.071 53.7388 124.308 53.7119 124.523 53.6582C124.738 53.6045 124.962 53.5361 125.197 53.4531V55.5405C124.884 55.6772 124.552 55.7871 124.201 55.8701C123.854 55.958 123.41 56.002 122.868 56.002C122.331 56.002 121.857 55.9189 121.447 55.7529C121.037 55.582 120.717 55.2891 120.487 54.874C120.263 54.4541 120.15 53.8706 120.15 53.1235V49.7031H119.147V48.5386L120.421 47.6377L121.161 45.8945H123.036V47.5571H125.072V49.7031H123.036V52.9331C123.036 53.2017 123.104 53.4043 123.241 53.541C123.378 53.6729 123.568 53.7388 123.812 53.7388ZM134.572 51.688C134.572 52.3813 134.477 52.9966 134.286 53.5337C134.096 54.0708 133.82 54.5225 133.458 54.8887C133.097 55.2549 132.66 55.5332 132.147 55.7236C131.635 55.9092 131.056 56.002 130.412 56.002C129.811 56.002 129.259 55.9092 128.756 55.7236C128.258 55.5332 127.824 55.2549 127.453 54.8887C127.082 54.5225 126.793 54.0708 126.588 53.5337C126.388 52.9966 126.288 52.3813 126.288 51.688C126.288 50.77 126.454 49.9937 126.786 49.3589C127.123 48.7241 127.602 48.2407 128.222 47.9087C128.847 47.5767 129.591 47.4106 130.456 47.4106C131.251 47.4106 131.959 47.5767 132.58 47.9087C133.2 48.2407 133.686 48.7241 134.037 49.3589C134.394 49.9937 134.572 50.77 134.572 51.688ZM129.196 51.688C129.196 52.1616 129.237 52.562 129.32 52.8892C129.403 53.2114 129.535 53.458 129.716 53.6289C129.901 53.7949 130.143 53.8779 130.441 53.8779C130.739 53.8779 130.976 53.7949 131.151 53.6289C131.327 53.458 131.454 53.2114 131.532 52.8892C131.615 52.562 131.657 52.1616 131.657 51.688C131.657 51.2144 131.615 50.8188 131.532 50.5015C131.454 50.1841 131.325 49.9448 131.144 49.7837C130.968 49.6226 130.729 49.542 130.426 49.542C129.992 49.542 129.677 49.7227 129.481 50.084C129.291 50.4453 129.196 50.98 129.196 51.688ZM141.222 47.4106C141.378 47.4106 141.542 47.4229 141.713 47.4473C141.884 47.4668 142.011 47.4839 142.094 47.4985L141.837 50.2012C141.745 50.1768 141.625 50.1572 141.479 50.1426C141.332 50.123 141.127 50.1133 140.863 50.1133C140.683 50.1133 140.49 50.1304 140.285 50.1646C140.08 50.1987 139.884 50.272 139.699 50.3843C139.518 50.4917 139.369 50.6577 139.252 50.8823C139.135 51.1021 139.076 51.3999 139.076 51.7759V55.8555H136.212V47.5571H138.344L138.791 48.8828H138.93C139.081 48.6094 139.274 48.3628 139.508 48.1431C139.748 47.9185 140.014 47.7402 140.307 47.6084C140.604 47.4766 140.91 47.4106 141.222 47.4106ZM146.994 47.4106C147.799 47.4106 148.495 47.5522 149.081 47.8354C149.667 48.1138 150.119 48.5337 150.436 49.0952C150.753 49.6567 150.912 50.3599 150.912 51.2046V52.479H145.792C145.817 52.9136 145.978 53.27 146.276 53.5483C146.579 53.8267 147.023 53.9658 147.609 53.9658C148.126 53.9658 148.6 53.9146 149.03 53.812C149.464 53.7095 149.911 53.5508 150.37 53.3359V55.394C149.97 55.604 149.533 55.7578 149.059 55.8555C148.585 55.9531 147.987 56.002 147.265 56.002C146.43 56.002 145.683 55.853 145.023 55.5552C144.364 55.2573 143.844 54.7959 143.463 54.1709C143.087 53.5459 142.899 52.7427 142.899 51.7612C142.899 50.7651 143.07 49.9473 143.412 49.3076C143.754 48.6631 144.232 48.187 144.848 47.8794C145.463 47.5669 146.178 47.4106 146.994 47.4106ZM147.096 49.3589C146.759 49.3589 146.476 49.4663 146.247 49.6812C146.022 49.8911 145.89 50.2231 145.851 50.6772H148.312C148.307 50.4331 148.258 50.2109 148.166 50.0107C148.073 49.8105 147.936 49.6519 147.755 49.5347C147.58 49.4175 147.36 49.3589 147.096 49.3589Z" fill="black"/>
</g>
<defs>
<filter id="filter0_d_641_186" x="0" y="0.855469" width="236" height="89" filterUnits="userSpaceOnUse" color-interpolation-filters="sRGB">
<feFlood flood-opacity="0" result="BackgroundImageFix"/>
<feColorMatrix in="SourceAlpha" type="matrix" values="0 0 0 0 0 0 0 0 0 0 0 0 0 0 0 0 0 0 127 0" result="hardAlpha"/>
<feOffset dy="4"/>
<feGaussianBlur stdDeviation="2"/>
<feComposite in2="hardAlpha" operator="out"/>
<feColorMatrix type="matrix" values="0 0 0 0 0 0 0 0 0 0 0 0 0 0 0 0 0 0 0.25 0"/>
<feBlend mode="normal" in2="BackgroundImageFix" result="effect1_dropShadow_641_186"/>
<feBlend mode="normal" in="SourceGraphic" in2="effect1_dropShadow_641_186" result="shape"/>
</filter>
</defs>
</svg>
